<svg xmlns="http://www.w3.org/2000/svg" width="189" height="53" viewBox="0 0 189 53" fill="none"><path d="M187 21.6999C185.898 16.147 182.903 11.1483 178.526 7.5559C174.15 3.96355 168.663 2 163 2C157.337 2 151.85 3.96355 147.474 7.5559C143.097 11.1483 140.102 16.147 139 21.6999" stroke="white" stroke-width="3" stroke-miterlimit="10" stroke-linecap="round"></path><path d="M139.711 34.0405C141.299 38.9671 144.409 43.2632 148.594 46.3106C152.779 49.3581 157.823 51 163 51C168.177 51 173.221 49.3581 177.406 46.3106C181.591 43.2632 184.701 38.9671 186.289 34.0405" stroke="white" stroke-width="3" stroke-miterlimit="10" stroke-linecap="round"></path><path d="M177.686 24.8267C176.553 22.8563 174.503 21.6002 171.911 21.2847C169.417 20.9871 166.698 21.5973 164.261 23.014L164.03 23.151C163.908 22.6405 163.757 22.1376 163.577 21.6449C162.613 18.9809 160.915 16.7516 158.82 15.3705C156.634 13.9359 154.258 13.5846 152.134 14.3496C150.01 15.1145 148.424 16.9421 147.667 19.4572C146.936 21.8741 147.075 24.6749 148.028 27.3358C148.98 29.9968 150.69 32.2291 152.785 33.6102C154.089 34.5065 155.625 34.9999 157.205 35.03C157.719 35.0302 158.231 34.9703 158.731 34.8514C158.84 35.1147 158.967 35.3703 159.11 35.6163C160.24 37.5868 162.29 38.8458 164.882 39.1583C165.301 39.2086 165.723 39.2334 166.145 39.2327C168.394 39.2026 170.596 38.5807 172.533 37.429C174.973 36.0122 176.861 33.9525 177.858 31.6279C178.884 29.211 178.828 26.7971 177.698 24.8267H177.686ZM153.368 15.9152C154.785 15.6027 156.344 15.9479 157.823 16.9212C159.598 18.085 161.027 19.987 161.855 22.2789C162.096 22.9402 162.278 23.6214 162.4 24.3148C161.248 25.2535 160.273 26.3939 159.524 27.6811C158.889 26.0589 157.765 24.677 156.311 23.7284C155.391 23.1258 154.637 22.2985 154.119 21.3238C153.602 20.349 153.338 19.2584 153.353 18.1535L153.368 15.9152ZM153.797 32.0595C152.021 30.8957 150.59 28.9937 149.761 26.7019C148.933 24.41 148.817 22.0288 149.43 19.99C149.772 18.723 150.504 17.5976 151.521 16.7754L151.507 18.1208C151.49 19.5372 151.829 20.9349 152.493 22.1839C153.157 23.4329 154.125 24.4926 155.305 25.2642C156.226 25.8669 156.98 26.6941 157.497 27.6688C158.015 28.6436 158.278 29.7342 158.264 30.8391V31.4076C158.203 31.9566 158.203 32.5106 158.264 33.0596C156.85 33.381 155.285 33.0387 153.797 32.0595ZM160.642 29.5414C161.474 27.5829 163.089 25.8327 165.187 24.6154C166.841 23.6268 168.724 23.0901 170.648 23.0587C170.999 23.0585 171.35 23.0793 171.698 23.1212C172.997 23.2405 174.225 23.7697 175.207 24.6332L173.888 24.8535C172.498 25.0832 171.189 25.6627 170.082 26.538C168.975 27.4133 168.107 28.556 167.556 29.8599C167.127 30.8774 166.449 31.7691 165.585 32.4519C164.722 33.1348 163.7 33.5865 162.616 33.765L160.432 34.1281C159.879 32.7798 159.95 31.1755 160.642 29.5414ZM176.163 30.9016C175.331 32.8601 173.719 34.6103 171.621 35.8277C169.524 37.045 167.21 37.5778 165.113 37.3159C163.814 37.1966 162.586 36.6674 161.604 35.8039L162.923 35.5836C164.312 35.3539 165.621 34.7748 166.728 33.9001C167.835 33.0253 168.704 31.8833 169.255 30.5802C169.684 29.5627 170.362 28.6709 171.226 27.9881C172.089 27.3053 173.111 26.8536 174.195 26.6751L176.379 26.309C176.932 27.6573 176.861 29.2616 176.169 30.8957L176.163 30.9016Z" fill="white"></path><path d="M3.72688 32.032C3.20421 32.032 2.72421 31.8987 2.28688 31.632C1.84954 31.3653 1.49754 31.008 1.23088 30.56C0.974875 30.1013 0.846875 29.6053 0.846875 29.072C0.846875 28.6133 0.958875 28.1493 1.18288 27.68C1.40688 27.2107 1.72154 26.7787 2.12688 26.384L2.65488 25.856L2.14288 25.376L3.18288 24.176L5.10288 26.032C5.63621 26.544 6.02021 27.0347 6.25488 27.504C6.48954 27.9733 6.60688 28.496 6.60688 29.072C6.60688 29.6053 6.47354 30.1013 6.20688 30.56C5.95088 31.008 5.60421 31.3653 5.16688 31.632C4.72954 31.8987 4.24954 32.032 3.72688 32.032ZM2.28688 29.072C2.28688 29.4453 2.42554 29.7653 2.70288 30.032C2.98021 30.288 3.32154 30.416 3.72688 30.416C4.13221 30.416 4.46821 30.288 4.73488 30.032C5.01221 29.7653 5.15088 29.4453 5.15088 29.072C5.15088 28.784 5.08154 28.512 4.94288 28.256C4.80421 27.9893 4.52688 27.6533 4.11088 27.248L3.74288 26.896L3.21488 27.408C2.88421 27.7387 2.64421 28.0373 2.49488 28.304C2.35621 28.56 2.28688 28.816 2.28688 29.072ZM8.99025 34.496C10.3556 34.208 11.2996 33.9787 11.8223 33.808C12.3556 33.648 12.7236 33.4347 12.9263 33.168C13.1396 32.912 13.2249 32.5227 13.1823 32H11.2143C10.3503 32 9.66225 31.7333 9.15025 31.2C8.63825 30.656 8.38225 29.9307 8.38225 29.024C8.38225 28.4587 8.50492 27.9253 8.75025 27.424C8.99558 26.912 9.34225 26.5067 9.79025 26.208C10.2383 25.8987 10.7449 25.744 11.3103 25.744C12.1316 25.744 12.8196 26.064 13.3743 26.704C13.9289 27.3333 14.2649 28.1547 14.3823 29.168L14.5103 30.336H15.4703L15.5663 31.168L15.4703 32H15.4223H14.6863L14.7023 32.352C14.7023 33.1307 14.5156 33.744 14.1423 34.192C13.7796 34.64 13.2303 34.9973 12.4943 35.264C11.7583 35.5413 10.6916 35.824 9.29425 36.112L8.99025 34.496ZM9.87025 29.024C9.87025 29.4613 9.97692 29.792 10.1903 30.016C10.4036 30.2293 10.7449 30.336 11.2143 30.336H13.0063L12.8943 29.36C12.8303 28.7307 12.6596 28.2507 12.3823 27.92C12.1049 27.5787 11.7476 27.408 11.3103 27.408C10.8623 27.408 10.5103 27.568 10.2543 27.888C9.99825 28.208 9.87025 28.5867 9.87025 29.024ZM20.4146 35.968C19.316 35.872 18.4253 35.4933 17.7426 34.832C17.0706 34.1813 16.6706 33.2373 16.5426 32H16.4466H15.3106V30.336H16.6546C16.9106 29.2587 17.4333 27.616 18.2226 25.408L19.1186 24.976L20.2866 25.296C20.7986 25.4347 21.2093 25.7653 21.5186 26.288C21.828 26.8107 21.9826 27.3813 21.9826 28C21.9826 28.4587 21.8973 28.88 21.7266 29.264C21.428 29.9147 20.948 30.4693 20.2866 30.928C19.6253 31.376 18.852 31.6853 17.9666 31.856C18.0413 32.4853 18.2653 33.0187 18.6386 33.456C19.012 33.8933 19.46 34.1493 19.9826 34.224L20.0146 33.088C20.0786 32.256 20.3506 31.5893 20.8306 31.088C21.3213 30.5867 21.9133 30.336 22.6066 30.336H23.1826L23.2786 31.168L23.1826 32H22.6706C22.3506 32 22.0733 32.1227 21.8386 32.368C21.6146 32.6133 21.492 32.9173 21.4706 33.28L21.3746 34.976L20.4146 35.968ZM18.1586 30.288C18.7346 30.2027 19.2253 30.0213 19.6306 29.744C20.0466 29.4667 20.3346 29.136 20.4946 28.752C20.58 28.528 20.6226 28.3147 20.6226 28.112C20.6226 27.824 20.5533 27.568 20.4146 27.344C20.2866 27.12 20.1106 26.9707 19.8866 26.896L19.3266 26.736C18.7933 28.2507 18.404 29.4347 18.1586 30.288ZM23.0294 30.336H26.2294C26.848 30.336 27.3067 30.3147 27.6054 30.272C27.9147 30.2293 28.128 30.1493 28.2454 30.032C28.3627 29.904 28.4214 29.7173 28.4214 29.472C28.4214 29.344 28.416 29.2427 28.4054 29.168C27.7547 29.2427 27.1254 29.28 26.5174 29.28C25.7067 29.28 25.0614 29.04 24.5814 28.56C24.1014 28.08 23.8614 27.4293 23.8614 26.608C23.8614 26.0213 23.968 25.4827 24.1814 24.992C24.3947 24.4907 24.7147 24.0907 25.1414 23.792C25.568 23.4933 26.08 23.344 26.6774 23.344C27.488 23.344 28.16 23.6427 28.6934 24.24C29.2374 24.8373 29.552 25.6267 29.6374 26.608L29.8134 28.992C29.8347 29.2693 29.8454 29.4613 29.8454 29.568C29.8454 30.1547 29.7334 30.624 29.5094 30.976C29.296 31.3173 28.9227 31.5733 28.3894 31.744C27.8667 31.9147 27.136 32 26.1974 32H23.0294V30.336ZM24.3254 20.464H25.8934V22.048H24.3254V20.464ZM25.2054 26.464C25.2054 26.8587 25.3174 27.1733 25.5414 27.408C25.776 27.632 26.1014 27.744 26.5174 27.744C27.2 27.744 27.7867 27.7013 28.2774 27.616L28.1974 26.736C28.1227 26.1387 27.9467 25.6747 27.6694 25.344C27.392 25.0027 27.04 24.832 26.6134 24.832C26.176 24.832 25.8294 24.992 25.5734 25.312C25.328 25.632 25.2054 26.016 25.2054 26.464ZM27.3014 20.464H28.8694V22.048H27.3014V20.464ZM45.6181 32C45.2981 32 45.0261 31.9467 44.8021 31.84C44.8128 31.9253 44.8181 32.0533 44.8181 32.224C44.8181 32.9387 44.6528 33.5253 44.3221 33.984C44.0021 34.4533 43.5541 34.8213 42.9781 35.088C42.4128 35.3547 41.6981 35.584 40.8341 35.776C40.3115 35.8933 39.8368 35.952 39.4101 35.952C38.5781 35.952 37.8581 35.7653 37.2501 35.392C36.6421 35.0187 36.1781 34.4907 35.8581 33.808C35.5381 33.1253 35.3781 32.3307 35.3781 31.424C35.3781 30.4 35.5808 29.312 35.9861 28.16L37.3941 28.72C37.0315 29.744 36.8501 30.6613 36.8501 31.472C36.8501 32.368 37.0688 33.0613 37.5061 33.552C37.9541 34.0427 38.5888 34.288 39.4101 34.288C39.7835 34.288 40.1461 34.2453 40.4981 34.16C41.2448 33.9893 41.7941 33.84 42.1461 33.712C42.5088 33.584 42.7915 33.4027 42.9941 33.168C43.2075 32.9333 43.3141 32.5973 43.3141 32.16C43.3141 32.0747 43.3035 31.9253 43.2821 31.712L42.6421 27.328L44.0981 27.088C44.2581 28.1013 44.3648 28.752 44.4181 29.04C44.5035 29.5093 44.6315 29.8453 44.8021 30.048C44.9835 30.24 45.2448 30.336 45.5861 30.336H46.0341L46.1301 31.168L46.0341 32H45.6181ZM39.0421 26.336H40.8181V28.096H39.0421V26.336ZM45.8731 30.336H48.6891C49.1905 30.336 49.5798 30.2507 49.8571 30.08C50.1451 29.8987 50.2891 29.6 50.2891 29.184C50.2891 28.96 50.2518 28.7307 50.1771 28.496L49.5531 26.112L50.9771 25.696L51.6331 28.16C51.7291 28.544 51.7771 28.9013 51.7771 29.232C51.7771 30.096 51.4838 30.7733 50.8971 31.264C50.3105 31.7547 49.5745 32 48.6891 32H45.8731V30.336ZM46.2411 33.536H47.8091V35.12H46.2411V33.536ZM49.2171 33.536H50.7851V35.12H49.2171V33.536ZM62.1141 32C61.2075 32 60.5461 31.728 60.1301 31.184C59.6181 31.728 58.9195 32 58.0341 32H54.1301V30.336H58.0341C58.5568 30.336 58.9088 30.2293 59.0901 30.016C59.2715 29.792 59.3515 29.5253 59.3301 29.216L59.0261 21.312L60.5141 21.232L60.8021 28.8L60.8181 28.928C60.8501 29.4933 60.9781 29.872 61.2021 30.064C61.4261 30.2453 61.7301 30.336 62.1141 30.336H62.4341L62.5301 31.168L62.4341 32H62.1141ZM54.8341 21.84L56.1141 29.2L54.6581 29.504L53.3781 22.144L54.8341 21.84ZM62.2794 30.336H63.5434C64.0554 30.336 64.45 30.2507 64.7274 30.08C65.0154 29.9093 65.1594 29.616 65.1594 29.2C65.1594 28.9867 65.122 28.752 65.0474 28.496L64.4074 26.112L65.8474 25.696L66.4874 28.08C66.594 28.464 66.6474 28.8373 66.6474 29.2C66.6474 30.0747 66.354 30.7627 65.7674 31.264C65.1807 31.7547 64.4394 32 63.5434 32H62.2794V30.336ZM63.5594 22.544H65.3354V24.32H63.5594V22.544ZM69.0851 22.944L70.5731 22.864L70.9251 31.984L69.4371 32.048L69.0851 22.944ZM67.4531 22.16C67.4531 21.744 67.5758 21.4133 67.8211 21.168C68.0665 20.912 68.3918 20.784 68.7971 20.784C68.8825 20.784 68.9998 20.7947 69.1491 20.816L70.7651 21.12C70.8185 21.1307 70.8878 21.136 70.9731 21.136C71.1545 21.136 71.2931 21.088 71.3891 20.992C71.4851 20.896 71.5331 20.768 71.5331 20.608V20.528L72.3171 20.464V20.768C72.3171 21.184 72.1891 21.52 71.9331 21.776C71.6878 22.032 71.3625 22.16 70.9571 22.16C70.8825 22.16 70.7705 22.1493 70.6211 22.128L69.0051 21.824C68.9518 21.8133 68.8771 21.808 68.7811 21.808C68.5998 21.808 68.4611 21.856 68.3651 21.952C68.2798 22.0373 68.2371 22.16 68.2371 22.32V22.416L67.4531 22.464V22.16ZM79.8831 32.032C79.3605 32.032 78.8805 31.8987 78.4431 31.632C78.0058 31.3653 77.6538 31.008 77.3871 30.56C77.1311 30.1013 77.0031 29.6053 77.0031 29.072C77.0031 28.6133 77.1151 28.1493 77.3391 27.68C77.5631 27.2107 77.8778 26.7787 78.2831 26.384L78.8111 25.856L78.2991 25.376L79.3391 24.176L81.2591 26.032C81.7925 26.544 82.1765 27.0347 82.4111 27.504C82.6458 27.9733 82.7631 28.496 82.7631 29.072C82.7631 29.6053 82.6298 30.1013 82.3631 30.56C82.1071 31.008 81.7605 31.3653 81.3231 31.632C80.8858 31.8987 80.4058 32.032 79.8831 32.032ZM78.4431 29.072C78.4431 29.4453 78.5818 29.7653 78.8591 30.032C79.1365 30.288 79.4778 30.416 79.8831 30.416C80.2885 30.416 80.6245 30.288 80.8911 30.032C81.1685 29.7653 81.3071 29.4453 81.3071 29.072C81.3071 28.784 81.2378 28.512 81.0991 28.256C80.9605 27.9893 80.6831 27.6533 80.2671 27.248L79.8991 26.896L79.3711 27.408C79.0405 27.7387 78.8005 28.0373 78.6511 28.304C78.5125 28.56 78.4431 28.816 78.4431 29.072ZM87.8825 32C87.1678 32 86.6025 31.8933 86.1865 31.68C85.7705 31.4667 85.4665 31.1253 85.2745 30.656C85.0825 30.176 84.9705 29.5147 84.9385 28.672L84.6505 21.312L86.1385 21.248L86.4265 28.672C86.4478 29.184 86.4905 29.552 86.5545 29.776C86.6292 29.9893 86.7572 30.1387 86.9385 30.224C87.1305 30.2987 87.4452 30.336 87.8825 30.336H88.0425L88.1385 31.168L88.0425 32H87.8825ZM95.9208 32C95.4514 32 95.0141 31.8987 94.6088 31.696C94.2034 31.4827 93.8141 31.1733 93.4408 30.768C93.3554 30.9387 93.2434 31.0933 93.1048 31.232C92.6781 31.744 92.0594 32 91.2488 32H87.8887V30.336H91.2648C91.5101 30.336 91.7021 30.2827 91.8408 30.176C92.0754 30.0053 92.1927 29.776 92.1927 29.488C92.1927 29.3067 92.1394 29.1307 92.0328 28.96L88.4808 23.936L88.8168 22.688L94.5928 20.56L95.1208 22.112L90.3368 23.856L93.1528 27.968L93.2648 28.144C93.7981 28.9973 94.2514 29.5787 94.6248 29.888C95.0088 30.1867 95.4408 30.336 95.9208 30.336H96.1448L96.2408 31.168L96.1448 32H95.9208ZM92.8648 18.816L93.2328 19.856L89.3448 21.264L88.9608 20.224L92.8648 18.816ZM104.591 32C103.791 32 103.145 31.7227 102.655 31.168C102.175 31.7227 101.508 32 100.655 32C100.26 32 99.8972 31.9253 99.5665 31.776C99.2465 31.6267 98.9692 31.4187 98.7345 31.152C98.2438 31.7173 97.5772 32 96.7345 32H95.9825V30.336H96.7345C97.2358 30.336 97.5772 30.24 97.7585 30.048C97.9398 29.856 98.0358 29.6053 98.0465 29.296V29.2V27.216H99.4385V29.2V29.296C99.4492 29.6267 99.5558 29.8827 99.7585 30.064C99.9612 30.2453 100.26 30.336 100.655 30.336C101.177 30.336 101.524 30.2293 101.695 30.016C101.876 29.8027 101.967 29.5307 101.967 29.2V27.216H103.359V29.2V29.296C103.359 29.6267 103.46 29.8827 103.663 30.064C103.876 30.2453 104.185 30.336 104.591 30.336C105.465 30.336 105.903 29.968 105.903 29.232C105.903 29.008 105.865 28.7627 105.791 28.496L105.151 26.112L106.591 25.696L107.231 28.08C107.337 28.4747 107.391 28.8587 107.391 29.232C107.391 29.7973 107.263 30.2933 107.007 30.72C106.761 31.136 106.425 31.456 105.999 31.68C105.583 31.8933 105.113 32 104.591 32ZM100.303 23.6H101.983V25.28H100.286L100.303 23.6ZM101.887 21.456H103.407V22.896H101.887V21.456ZM103.295 23.6H104.959L104.975 25.28H103.279L103.295 23.6ZM109.772 34.496C111.02 34.24 111.91 34.032 112.444 33.872C112.977 33.7227 113.361 33.5307 113.596 33.296C113.841 33.072 113.964 32.7467 113.964 32.32C113.964 32.1493 113.958 32.016 113.948 31.92L113.932 31.84C113.27 31.9467 112.62 32 111.98 32C111.446 32 110.961 31.872 110.524 31.616C110.097 31.36 109.761 31.008 109.516 30.56C109.281 30.112 109.164 29.6 109.164 29.024C109.164 28.4587 109.286 27.9253 109.532 27.424C109.777 26.9227 110.118 26.5173 110.556 26.208C111.004 25.8987 111.516 25.744 112.092 25.744C112.913 25.744 113.601 26.0587 114.156 26.688C114.71 27.3173 115.046 28.144 115.164 29.168L115.436 31.744C115.457 32.0427 115.468 32.256 115.468 32.384C115.468 33.152 115.281 33.76 114.908 34.208C114.545 34.656 113.996 35.0133 113.26 35.28C112.524 35.5467 111.462 35.824 110.076 36.112L109.772 34.496ZM110.652 29.008C110.652 29.424 110.769 29.7493 111.004 29.984C111.238 30.2187 111.564 30.336 111.98 30.336C112.598 30.336 113.196 30.2827 113.772 30.176L113.692 29.376C113.628 28.7467 113.452 28.2613 113.164 27.92C112.876 27.5787 112.513 27.408 112.076 27.408C111.638 27.408 111.292 27.568 111.036 27.888C110.78 28.1973 110.652 28.5707 110.652 29.008ZM121.375 32C121.109 32 120.89 31.9787 120.719 31.936C120.741 32.1707 120.751 32.336 120.751 32.432C120.751 33.392 120.453 34.128 119.855 34.64C119.258 35.152 118.373 35.568 117.199 35.888L116.415 36.096L116.031 34.496L116.815 34.288C117.402 34.128 117.855 33.9787 118.175 33.84C118.506 33.7013 118.767 33.5093 118.959 33.264C119.162 33.0293 119.263 32.7147 119.263 32.32C119.263 32.2453 119.253 32.112 119.231 31.92L118.591 27.312L120.063 27.088L120.191 28.064C120.298 28.64 120.357 28.9867 120.367 29.104C120.453 29.6053 120.559 29.936 120.687 30.096C120.826 30.256 121.055 30.336 121.375 30.336H121.487L121.583 31.168L121.487 32H121.375ZM121.373 30.336H124.573C125.192 30.336 125.65 30.3147 125.949 30.272C126.258 30.2293 126.472 30.1493 126.589 30.032C126.706 29.904 126.765 29.7173 126.765 29.472C126.765 29.344 126.76 29.2427 126.749 29.168C126.098 29.2427 125.469 29.28 124.861 29.28C124.05 29.28 123.405 29.04 122.925 28.56C122.445 28.08 122.205 27.4293 122.205 26.608C122.205 26.0213 122.312 25.4827 122.525 24.992C122.738 24.4907 123.058 24.0907 123.485 23.792C123.912 23.4933 124.424 23.344 125.021 23.344C125.832 23.344 126.504 23.6427 127.037 24.24C127.581 24.8373 127.896 25.6267 127.981 26.608L128.157 28.992C128.178 29.2693 128.189 29.4613 128.189 29.568C128.189 30.1547 128.077 30.624 127.853 30.976C127.64 31.3173 127.266 31.5733 126.733 31.744C126.21 31.9147 125.48 32 124.541 32H121.373V30.336ZM123.549 26.464C123.549 26.8587 123.661 27.1733 123.885 27.408C124.12 27.632 124.445 27.744 124.861 27.744C125.544 27.744 126.13 27.7013 126.621 27.616L126.541 26.736C126.466 26.1387 126.29 25.6747 126.013 25.344C125.736 25.0027 125.384 24.832 124.957 24.832C124.52 24.832 124.173 24.992 123.917 25.312C123.672 25.632 123.549 26.016 123.549 26.464ZM124.093 20.016H125.869V21.776H124.093V20.016Z" fill="white"></path></svg>